# xmcd
#
# Track frame offsets:
# 150
# 5594
# 58905
# 98679
# 133550
# 181767
# 232353
#
# Disc length: 3163 seconds
#
# Revision: 0
# Processed by: cddbd v1.4PL0 Copyright (c) Steve Scherf et al.
# Submitted via: Audion 3.0.2 (http://www.panic.com/audion/)
#
DISCID=5a0c5907
DTITLE=Sound Portraits - Youth Portraits
DYEAR=1900
DGENRE=
TTITLE0=Intro
TTITLE1=Ariel
TTITLE2=Yovani
TTITLE3=Bernard
TTITLE4=Angie
TTITLE5=Andre
TTITLE6=Credits
EXTD=
EXTT0=
EXTT1=
EXTT2=
EXTT3=
EXTT4=
EXTT5=
EXTT6=
PLAYORDER=
